<svg xmlns="http://www.w3.org/2000/svg" xmlns:xlink="http://www.w3.org/1999/xlink" width="500" zoomAndPan="magnify" viewBox="0 0 375 374.999991" height="500" preserveAspectRatio="xMidYMid meet" version="1.0"><defs><g/><clipPath id="e0f0115e89"><path d="M 101 4 L 375 4 L 375 234.75 L 101 234.75 Z M 101 4 " clip-rule="nonzero"/></clipPath></defs><g clip-path="url(#e0f0115e89)"><path fill="#ef6b48" d="M 267.886719 85.097656 C 257.109375 61.78125 241.039062 37.519531 219.675781 12.324219 C 154.585938 24 115.144531 31.46875 101.34375 34.753906 C 166.265625 123.125 206.816406 189.699219 222.960938 234.457031 C 263.734375 202.917969 289.113281 183.582031 299.113281 176.453125 L 289.804688 144.714844 C 304.695312 106.574219 334.089844 59.886719 378.011719 4.644531 C 336.183594 50.265625 289.078125 107.539062 236.671875 176.441406 C 213.753906 137.761719 187.644531 106.023438 158.339844 81.238281 C 178.023438 84.621094 203.578125 96.476562 235.03125 116.796875 L 267.898438 85.058594 Z M 267.886719 85.097656 " fill-opacity="1" fill-rule="evenodd"/></g><path fill="#ffffff" d="M 181.875 230.082031 C 132.847656 165.363281 78.058594 115.757812 17.527344 81.261719 C 41.902344 70.777344 64.171875 64.574219 84.355469 62.65625 C 118.769531 99.59375 159.832031 154.890625 207.542969 228.554688 C 197.519531 204.042969 183.453125 179.484375 169.957031 157.332031 C 145.84375 117.738281 118.894531 79.359375 91.445312 42.007812 L 80.503906 27.109375 L 98.507812 22.835938 C 111.808594 19.679688 125.570312 17.199219 138.992188 14.652344 C 165.089844 9.703125 191.234375 4.980469 217.367188 0.28125 L -0.0117188 0.28125 L -0.0117188 154.851562 C 69.941406 181.066406 124.089844 206.964844 162.414062 232.550781 C 125.570312 198.21875 78.273438 168.671875 20.523438 143.914062 L 54.484375 129.140625 C 109.296875 165.164062 151.753906 198.808594 181.863281 230.09375 Z M 181.875 230.082031 " fill-opacity="1" fill-rule="evenodd"/><g fill="#ffffff" fill-opacity="1"><g transform="translate(2.380102, 365.117005)"><g><path d="M 32.234375 -64.46875 C 41.429688 -64.46875 49.007812 -61.300781 54.96875 -54.96875 C 60.925781 -48.632812 63.90625 -40.457031 63.90625 -30.4375 C 63.90625 -20.664062 61.035156 -12.832031 55.296875 -6.9375 C 49.566406 -1.050781 42.097656 1.890625 32.890625 1.890625 C 23.566406 1.890625 15.925781 -1.117188 9.96875 -7.140625 C 4.019531 -13.160156 1.046875 -21.050781 1.046875 -30.8125 C 1.046875 -40.707031 3.972656 -48.789062 9.828125 -55.0625 C 15.691406 -61.332031 23.160156 -64.46875 32.234375 -64.46875 Z M 25.140625 -54.078125 C 23.316406 -52.429688 21.835938 -49.703125 20.703125 -45.890625 C 19.566406 -42.078125 19 -37.679688 19 -32.703125 C 19 -25.015625 20.367188 -18.851562 23.109375 -14.21875 C 25.847656 -9.59375 29.675781 -7.28125 34.59375 -7.28125 C 36.175781 -7.28125 37.660156 -7.53125 39.046875 -8.03125 C 41.117188 -9.988281 42.785156 -12.953125 44.046875 -16.921875 C 45.304688 -20.890625 45.9375 -25.300781 45.9375 -30.15625 C 45.9375 -37.59375 44.582031 -43.640625 41.875 -48.296875 C 39.164062 -52.960938 35.539062 -55.296875 31 -55.296875 C 29.113281 -55.296875 27.160156 -54.890625 25.140625 -54.078125 Z M 25.140625 -54.078125 "/></g></g></g><g fill="#ffffff" fill-opacity="1"><g transform="translate(67.309567, 365.117005)"><g><path d="M 59.5625 -5.390625 L 46.984375 1.609375 C 45.148438 1.484375 43.300781 0.695312 41.4375 -0.75 C 39.582031 -2.207031 38.09375 -4.097656 36.96875 -6.421875 C 31.925781 -2.578125 26.851562 0.0976562 21.75 1.609375 C 18.53125 1.609375 15.484375 0.601562 12.609375 -1.40625 C 9.742188 -3.425781 8.125 -5.953125 7.75 -8.984375 L 7.46875 -14.375 L 7.46875 -37.71875 L 0.46875 -39.046875 L 0 -43.578125 C 5.601562 -45.722656 11.84375 -46.890625 18.71875 -47.078125 L 23.828125 -42.546875 L 23.828125 -17.578125 C 23.828125 -12.347656 25.8125 -9.734375 29.78125 -9.734375 C 31.726562 -9.734375 33.617188 -10.144531 35.453125 -10.96875 L 35.453125 -38 L 30.15625 -39.328125 L 29.6875 -43.859375 C 34.726562 -45.878906 40.398438 -46.953125 46.703125 -47.078125 L 51.796875 -42.546875 L 51.796875 -11.71875 C 51.796875 -10.082031 52.585938 -9.265625 54.171875 -9.265625 L 56.625 -9.359375 L 58.984375 -9.546875 Z M 59.5625 -5.390625 "/></g></g></g><g fill="#ffffff" fill-opacity="1"><g transform="translate(127.229917, 365.117005)"><g><path d="M 27.3125 -10.5 C 29.519531 -10.5 32.039062 -10.78125 34.875 -11.34375 L 35.546875 -6.421875 L 19.953125 1.609375 C 16.796875 1.734375 13.910156 0.742188 11.296875 -1.359375 C 8.679688 -3.472656 7.375 -5.953125 7.375 -8.796875 L 7.375 -34.125 L 0.46875 -34.125 L 0.1875 -39.234375 C 2.269531 -40.992188 4.945312 -42.820312 8.21875 -44.71875 L 13.421875 -57.375 L 20.890625 -57.375 L 23.25 -44.71875 L 36.296875 -44.71875 L 36.390625 -39.984375 L 31.671875 -34.03125 L 23.734375 -34.03125 L 23.734375 -14.5625 C 23.734375 -11.851562 24.925781 -10.5 27.3125 -10.5 Z M 27.3125 -10.5 "/></g></g></g><g fill="#ef6b48" fill-opacity="1"><g transform="translate(165.22033, 365.117005)"><g><path d="M 53.890625 -6.8125 L 34.5 1.515625 C 26.75 1.765625 20.367188 0.378906 15.359375 -2.640625 C 10.347656 -5.671875 6.707031 -9.628906 4.4375 -14.515625 C 2.175781 -19.398438 1.046875 -24.675781 1.046875 -30.34375 C 1.046875 -36.144531 2.238281 -41.628906 4.625 -46.796875 C 7.019531 -51.960938 10.613281 -56.132812 15.40625 -59.3125 C 20.195312 -62.5 25.992188 -64.09375 32.796875 -64.09375 C 40.109375 -64.09375 46.601562 -62.109375 52.28125 -58.140625 C 52.40625 -56.117188 52.273438 -53.40625 51.890625 -50 C 51.515625 -46.601562 50.953125 -43.644531 50.203125 -41.125 L 41.5 -41.125 L 39.234375 -52.9375 C 34.878906 -54.832031 30.117188 -55.78125 24.953125 -55.78125 C 21.867188 -53.445312 19.550781 -50.164062 18 -45.9375 C 16.457031 -41.71875 15.6875 -37.273438 15.6875 -32.609375 C 15.6875 -25.109375 17.515625 -19.148438 21.171875 -14.734375 C 24.828125 -10.328125 29.773438 -8.21875 36.015625 -8.40625 L 51.609375 -13.515625 Z M 53.890625 -6.8125 "/></g></g></g><g fill="#ef6b48" fill-opacity="1"><g transform="translate(220.226063, 365.117005)"><g><path d="M 50.578125 -4.53125 L 39.046875 1.515625 C 37.523438 1.453125 35.945312 0.773438 34.3125 -0.515625 C 32.675781 -1.804688 31.382812 -3.398438 30.4375 -5.296875 L 20.140625 1.234375 L 17.203125 1.421875 C 13.234375 1.421875 9.957031 0.253906 7.375 -2.078125 C 4.789062 -4.410156 3.5 -7.21875 3.5 -10.5 C 3.5 -15.03125 5.957031 -18.617188 10.875 -21.265625 L 28.921875 -21.75 L 28.921875 -30.15625 C 28.921875 -35.195312 27.441406 -38.410156 24.484375 -39.796875 C 21.585938 -39.609375 19.222656 -39.195312 17.390625 -38.5625 L 15.6875 -28.359375 L 7.75 -28.078125 C 6.363281 -31.546875 5.671875 -35.359375 5.671875 -39.515625 L 5.765625 -41.40625 C 9.234375 -42.914062 13.394531 -44.253906 18.25 -45.421875 C 23.101562 -46.585938 26.789062 -47.171875 29.3125 -47.171875 C 31.632812 -47.171875 33.914062 -46.539062 36.15625 -45.28125 C 38.394531 -44.019531 40.207031 -42.378906 41.59375 -40.359375 C 42.289062 -39.160156 42.671875 -36.769531 42.734375 -33.1875 L 42.734375 -10.5 C 42.734375 -8.976562 43.519531 -8.21875 45.09375 -8.21875 L 49.71875 -8.796875 Z M 19.1875 -7 C 21.707031 -7.0625 24.953125 -7.847656 28.921875 -9.359375 L 28.921875 -16.171875 L 26.5625 -16.265625 C 20.320312 -16.265625 17.203125 -14.5625 17.203125 -11.15625 C 17.203125 -9.457031 17.863281 -8.070312 19.1875 -7 Z M 19.1875 -7 "/></g></g></g><g fill="#ef6b48" fill-opacity="1"><g transform="translate(271.640377, 365.117005)"><g><path d="M 15.78125 -35.640625 C 15.78125 -34.316406 16.269531 -33.148438 17.25 -32.140625 C 18.226562 -31.128906 21.207031 -29.410156 26.1875 -26.984375 C 31.164062 -24.554688 34.535156 -22.238281 36.296875 -20.03125 C 38.066406 -17.832031 38.953125 -15.316406 38.953125 -12.484375 C 38.953125 -8.253906 37.265625 -4.800781 33.890625 -2.125 C 30.515625 0.550781 26.085938 1.890625 20.609375 1.890625 C 14.429688 1.890625 8.191406 0.21875 1.890625 -3.125 L 6.625 -14.1875 C 12.414062 -9.894531 18.273438 -6.960938 24.203125 -5.390625 C 25.523438 -6.523438 26.1875 -7.941406 26.1875 -9.640625 C 26.1875 -11.085938 25.617188 -12.347656 24.484375 -13.421875 C 23.347656 -14.492188 20.382812 -16.195312 15.59375 -18.53125 C 10.800781 -20.863281 7.570312 -23.082031 5.90625 -25.1875 C 4.238281 -27.300781 3.40625 -29.742188 3.40625 -32.515625 C 3.40625 -36.804688 5.265625 -40.273438 8.984375 -42.921875 C 12.703125 -45.566406 17.457031 -46.890625 23.25 -46.890625 C 28.675781 -46.890625 33.28125 -45.878906 37.0625 -43.859375 L 37.15625 -41.21875 C 37.15625 -37.5625 36.617188 -34.15625 35.546875 -31 L 28.265625 -31 L 26 -39.328125 C 23.601562 -39.953125 21.394531 -40.203125 19.375 -40.078125 C 16.976562 -39.265625 15.78125 -37.785156 15.78125 -35.640625 Z M 15.78125 -35.640625 "/></g></g></g><g fill="#ef6b48" fill-opacity="1"><g transform="translate(313.792546, 365.117005)"><g><path d="M 50.859375 -7.375 C 53.378906 -6.675781 55.648438 -5.757812 57.671875 -4.625 L 57.28125 0 L 32.234375 0 L 31.953125 -3.21875 L 37.15625 -5.578125 L 37.15625 -27.3125 C 37.15625 -33.488281 35.101562 -36.578125 31 -36.578125 C 28.925781 -36.578125 26.03125 -35.507812 22.3125 -33.375 L 22.3125 -7.1875 C 24.519531 -6.488281 26.441406 -5.632812 28.078125 -4.625 L 27.703125 0 L 1.890625 0 L 1.609375 -3.21875 C 3.367188 -4.226562 5.703125 -5.234375 8.609375 -6.234375 L 8.609375 -60.96875 L 1.515625 -61.734375 L 0.84375 -66.265625 C 6.269531 -68.347656 11.878906 -69.453125 17.671875 -69.578125 L 22.3125 -65.421875 L 22.3125 -37.90625 C 28.550781 -42.507812 33.8125 -45.347656 38.09375 -46.421875 C 40.988281 -46.222656 43.695312 -45.242188 46.21875 -43.484375 C 48.738281 -41.722656 50.191406 -39.453125 50.578125 -36.671875 L 50.859375 -31.296875 Z M 50.859375 -7.375 "/></g></g></g></svg>